<?xml version="1.0" encoding="UTF-8"?>
<svg id="Layer_2" data-name="Layer 2" xmlns="http://www.w3.org/2000/svg" viewBox="0 0 193.95 59.13">
  <defs>
    <style>
      .cls-1, .cls-2, .cls-3 {
        stroke-width: 0px;
      }

      .cls-2 {
        fill: #2a5b1e;
      }

      .cls-3 {
        fill: #ffd329;
      }
    </style>
  </defs>
  <g id="Layer_1-2" data-name="Layer 1">
    <g>
      <g>
        <path class="cls-3" d="m79.35,19.67c-.58.22-1.23.33-1.94.33-1.23,0-2.34-.27-3.32-.81-.98-.54-1.98-1.52-3.01-2.94l-2.66,3.01c.67.92,1.43,1.7,2.29,2.35.86.65,1.82,1.13,2.88,1.46,1.06.32,2.23.49,3.51.49,1.65,0,3.09-.28,4.32-.83s2.19-1.35,2.87-2.38c.68-1.03,1.02-2.27,1.02-3.71,0-.83-.17-1.59-.5-2.27s-.82-1.28-1.47-1.82c-.65-.53-1.43-.99-2.35-1.38s-1.95-.69-3.1-.92c-.69-.15-1.3-.31-1.85-.5-.54-.19-.99-.41-1.33-.66-.34-.25-.61-.54-.8-.86-.19-.32-.28-.69-.28-1.11,0-.54.16-1.01.47-1.39.31-.39.75-.68,1.3-.89.55-.21,1.21-.31,1.96-.31.67,0,1.3.11,1.91.33.6.22,1.17.54,1.69.97.52.43.99.97,1.41,1.61l2.69-2.66c-.48-.81-1.09-1.51-1.83-2.08-.74-.57-1.6-1.01-2.57-1.3-.97-.29-2.07-.44-3.3-.44-1.09,0-2.1.16-3.04.47-.94.31-1.76.75-2.47,1.31s-1.27,1.23-1.68,2c-.41.77-.61,1.62-.61,2.54s.14,1.74.41,2.46c.27.72.7,1.37,1.28,1.94.58.57,1.3,1.05,2.16,1.44.86.39,1.86.69,3.01.92.61.13,1.16.26,1.66.41.5.15.95.32,1.35.53.4.21.73.43,1,.67.27.24.47.51.61.81.14.3.2.63.2.99,0,.5-.17.94-.5,1.33-.33.39-.79.69-1.38.91Z"/>
        <path class="cls-3" d="m102.96,12.53c-.65-.53-1.43-.99-2.35-1.38-.92-.39-1.95-.69-3.1-.92-.69-.15-1.3-.31-1.85-.5-.54-.19-.99-.41-1.33-.66-.34-.25-.61-.54-.8-.86-.19-.32-.28-.69-.28-1.11,0-.54.16-1.01.47-1.39.31-.39.75-.68,1.3-.89.55-.21,1.21-.31,1.96-.31.67,0,1.3.11,1.91.33.6.22,1.17.54,1.69.97.52.43.99.97,1.41,1.61l2.69-2.66c-.48-.81-1.09-1.51-1.83-2.08-.74-.57-1.6-1.01-2.57-1.3-.97-.29-2.07-.44-3.3-.44-1.09,0-2.1.16-3.04.47-.94.31-1.76.75-2.47,1.31s-1.27,1.23-1.68,2c-.41.77-.61,1.62-.61,2.54s.14,1.74.41,2.46c.27.72.7,1.37,1.28,1.94.58.57,1.3,1.05,2.16,1.44.86.39,1.86.69,3.01.92.61.13,1.16.26,1.66.41.5.15.95.32,1.35.53.4.21.73.43,1,.67.27.24.47.51.61.81.14.3.2.63.2.99,0,.5-.17.94-.5,1.33-.33.39-.79.69-1.38.91-.58.22-1.23.33-1.94.33-1.23,0-2.34-.27-3.32-.81-.98-.54-1.98-1.52-3.01-2.94l-2.66,3.01c.67.92,1.43,1.7,2.29,2.35.86.65,1.82,1.13,2.88,1.46,1.06.32,2.23.49,3.51.49,1.65,0,3.09-.28,4.32-.83s2.19-1.35,2.87-2.38c.68-1.03,1.02-2.27,1.02-3.71,0-.83-.17-1.59-.5-2.27s-.82-1.28-1.47-1.82Z"/>
        <path class="cls-3" d="m126.05,19.53c.34-.81.52-1.75.52-2.82,0-1-.2-1.89-.61-2.68-.41-.78-.98-1.44-1.71-1.97-.48-.35-1.01-.62-1.6-.83.72-.33,1.32-.79,1.78-1.38.65-.83.97-1.86.97-3.07s-.26-2.17-.77-2.99c-.51-.82-1.26-1.45-2.25-1.86-.99-.42-2.21-.63-3.65-.63h-9.33v21.92h9.64c1.15,0,2.18-.14,3.1-.42.92-.28,1.71-.69,2.38-1.24.67-.54,1.17-1.22,1.52-2.04Zm-12.67-14.56h4.67c1.09,0,1.91.24,2.47.7s.85,1.12.85,1.96c0,.52-.13.98-.38,1.38-.25.4-.6.71-1.05.94-.45.23-.98.34-1.58.34h-4.98v-5.32Zm8.66,13.23c-.28.45-.69.79-1.22,1.02-.53.23-1.19.34-1.96.34h-5.48v-5.76h5.32c.77,0,1.44.11,2,.33s1,.54,1.3.95c.3.42.45.92.45,1.5,0,.63-.14,1.16-.42,1.61Z"/>
        <path class="cls-2" d="m83.98,40.77c-.48-.35-1.01-.62-1.6-.83.72-.33,1.32-.79,1.78-1.38.65-.83.97-1.86.97-3.07s-.26-2.17-.77-2.99c-.51-.82-1.26-1.45-2.25-1.86-.99-.42-2.21-.63-3.65-.63h-9.33v21.92h9.64c1.15,0,2.18-.14,3.1-.42.92-.28,1.71-.69,2.38-1.24.67-.54,1.17-1.22,1.52-2.04.34-.81.52-1.75.52-2.82,0-1-.2-1.89-.61-2.68-.41-.78-.98-1.44-1.71-1.97Zm-10.87-7.09h4.67c1.09,0,1.91.24,2.47.7s.85,1.12.85,1.96c0,.52-.13.98-.38,1.38-.25.4-.6.71-1.05.94-.45.23-.98.34-1.58.34h-4.98v-5.32Zm8.66,13.23c-.28.45-.69.79-1.22,1.02-.53.23-1.19.34-1.96.34h-5.48v-5.76h5.32c.77,0,1.44.11,2,.33s1,.54,1.3.95c.3.42.45.92.45,1.5,0,.63-.14,1.16-.42,1.61Z"/>
        <path class="cls-2" d="m100.98,45.32c0,.52-.09,1.01-.28,1.46-.19.45-.45.83-.78,1.16-.33.32-.73.57-1.17.75-.45.18-.94.27-1.49.27-.73,0-1.36-.17-1.88-.5-.52-.33-.92-.81-1.19-1.42-.27-.62-.41-1.36-.41-2.24v-9.36h-3.85v10.18c0,1.38.23,2.56.69,3.55.46.99,1.13,1.75,2,2.29s1.91.8,3.1.8c.92,0,1.79-.18,2.6-.55.81-.36,1.52-.86,2.11-1.47.23-.23.42-.49.6-.75l.04,2.45h3.76v-16.5h-3.85v9.89Z"/>
        <rect class="cls-2" x="109.38" y="28.76" width="3.88" height="23.17"/>
        <rect class="cls-2" x="117.83" y="28.76" width="3.88" height="23.17"/>
        <path class="cls-2" d="m136.96,44.17c-.4-.44-.94-.82-1.63-1.16-.69-.33-1.54-.64-2.57-.91-.73-.17-1.33-.34-1.79-.53-.46-.19-.8-.35-1.03-.5-.21-.15-.37-.33-.48-.55-.11-.22-.18-.45-.2-.7,0-.29.06-.55.17-.77s.28-.4.48-.55c.21-.15.47-.26.78-.33.31-.07.67-.11,1.06-.11.42,0,.87.09,1.35.27.48.18.96.41,1.43.7.47.29.9.63,1.3,1l2.13-2.35c-.48-.54-1.06-1.01-1.74-1.39-.68-.39-1.41-.68-2.19-.89-.78-.21-1.59-.31-2.43-.31s-1.6.12-2.35.34-1.41.56-1.97,1-1.01.95-1.33,1.55-.49,1.26-.49,1.99c0,.58.09,1.13.27,1.63.18.5.44.95.8,1.35.42.48,1,.91,1.75,1.3.75.39,1.69.73,2.82,1.02.71.17,1.29.33,1.74.5.45.17.78.32.99.47.38.29.56.69.56,1.19,0,.27-.06.52-.17.74s-.28.41-.48.58c-.21.17-.45.29-.74.38-.28.08-.6.13-.96.13-.86,0-1.67-.16-2.44-.47-.77-.31-1.47-.82-2.1-1.53l-2.5,2.16c.73.92,1.68,1.62,2.83,2.11,1.16.49,2.47.74,3.93.74,1.19,0,2.26-.22,3.21-.66.95-.44,1.7-1.04,2.25-1.82.55-.77.83-1.65.83-2.63,0-.61-.08-1.16-.25-1.66-.17-.5-.45-.94-.85-1.32Z"/>
        <polygon class="cls-2" points="146.14 42.54 154.87 42.54 154.87 38.9 146.14 38.9 146.14 33.71 156.47 33.71 156.47 30.01 142.13 30.01 142.13 51.93 156.6 51.93 156.6 48.24 146.14 48.24 146.14 42.54"/>
        <path class="cls-2" d="m168.56,46.2c-.14.47-.3.92-.46,1.35-.03-.09-.05-.18-.08-.27-.15-.45-.29-.81-.44-1.08l-4.54-10.77h-4.45l7.56,16.87-2.96,6.84h4.01l2.82-7.2,6.89-16.5h-4.48l-3.88,10.77Z"/>
        <path class="cls-2" d="m193.95,43.19c.02-1.17-.15-2.25-.52-3.24-.37-.99-.89-1.85-1.58-2.57s-1.5-1.29-2.44-1.71c-.94-.42-1.95-.63-3.04-.63-1.23,0-2.36.21-3.4.64-1.03.43-1.92,1.03-2.66,1.82-.74.78-1.32,1.71-1.74,2.77s-.63,2.24-.63,3.54c0,1.63.37,3.07,1.11,4.34.74,1.26,1.77,2.26,3.1,2.99,1.33.73,2.85,1.1,4.59,1.1.77,0,1.55-.1,2.35-.31s1.55-.5,2.27-.86c.72-.37,1.36-.81,1.93-1.33l-1.91-2.66c-.75.65-1.45,1.1-2.1,1.35-.65.25-1.36.38-2.13.38-1.11,0-2.07-.21-2.9-.64-.82-.43-1.46-1.04-1.91-1.83-.3-.53-.49-1.13-.59-1.78h12.16l.03-1.35Zm-10.16-4.13c.7-.4,1.56-.6,2.58-.6.67,0,1.28.14,1.83.42.55.28,1.01.67,1.36,1.16.35.49.56,1.06.63,1.71v.16h-8.36c.09-.42.21-.8.37-1.14.35-.74.88-1.31,1.58-1.71Z"/>
      </g>
      <g>
        <path class="cls-3" d="m48.32,28.74h3.02v-3.87h-3.02c-.93-10.37-9.21-18.66-19.59-19.59v-3.02h-3.87v3.02C14.49,6.2,6.2,14.49,5.28,24.87h-3.02v3.87h3.02c.93,10.37,9.21,18.66,19.59,19.59v3.02h3.87v-3.02c10.37-.93,18.66-9.21,19.59-19.59Zm-39.15,0h2.46v-3.87h-2.46c.9-8.24,7.46-14.8,15.7-15.7v2.46h3.87v-2.46c8.24.9,14.8,7.46,15.7,15.7h-2.46v3.87h2.46c-.9,8.24-7.46,14.8-15.7,15.7v-2.46h-3.87v2.46c-8.24-.9-14.8-7.46-15.7-15.7Z"/>
        <polygon class="cls-2" points="3.87 36.64 0 36.64 0 53.6 16.96 53.6 16.96 49.73 3.87 49.73 3.87 36.64"/>
        <polygon class="cls-2" points="49.73 49.73 36.58 49.73 36.58 53.6 53.6 53.6 53.6 36.56 49.73 36.56 49.73 49.73"/>
        <polygon class="cls-2" points="36.64 0 36.64 3.87 49.73 3.87 49.73 16.96 53.6 16.96 53.6 0 36.64 0"/>
        <polygon class="cls-2" points="3.87 3.87 16.96 3.87 16.96 0 0 0 0 17 3.87 17 3.87 3.87"/>
      </g>
      <path class="cls-1" d="m26.8,38.61c-5.82,0-10.82-4.34-11.62-10.1l1.99-.28c.67,4.77,4.81,8.37,9.63,8.37s8.97-3.6,9.63-8.37l1.99.28c-.8,5.76-5.8,10.1-11.62,10.1Z"/>
      <path class="cls-2" d="m26.8,14.26c-6.95,0-12.61,5.66-12.61,12.61,0,.59.04,1.18.12,1.76l.23,1.62h24.53s.23-1.62.23-1.62c.08-.58.12-1.17.12-1.75,0-6.95-5.66-12.61-12.61-12.61Zm0,3.76c2.8,0,5.3,1.31,6.92,3.35h-13.84c1.62-2.04,4.12-3.35,6.92-3.35Zm-8.84,8.46c.02-.46.08-.91.17-1.35h17.34c.09.44.15.89.17,1.35h-17.68Z"/>
    </g>
  </g>
</svg>