
<svg width="103" height="33" viewBox="0 0 103 33" fill="none" xmlns="http://www.w3.org/2000/svg">
<path d="M42.1343 11.2805C41.8263 11.4003 41.4811 11.4601 41.1041 11.4601C40.4509 11.4601 39.8614 11.3132 39.341 11.0192C38.8205 10.7252 38.2894 10.1917 37.7425 9.41872L36.3298 11.0573C36.6856 11.5581 37.0893 11.9828 37.546 12.3366C38.0027 12.6904 38.5125 12.9517 39.0754 13.1314C39.6383 13.3056 40.2597 13.3981 40.9394 13.3981C41.8157 13.3981 42.5804 13.2457 43.2336 12.9463C43.8868 12.6469 44.3966 12.2114 44.7578 11.6507C45.1189 11.09 45.2995 10.4149 45.2995 9.63103C45.2995 9.1792 45.2092 8.76547 45.0339 8.39529C44.8587 8.02511 44.5985 7.69848 44.2533 7.40452C43.9081 7.116 43.4938 6.86558 43.0053 6.65327C42.5167 6.44096 41.9697 6.27765 41.359 6.15244C40.9925 6.07079 40.6686 5.98369 40.3765 5.88025C40.0897 5.77682 39.8508 5.65706 39.6702 5.52096C39.4896 5.38487 39.3463 5.227 39.2454 5.05279C39.1445 4.87859 39.0967 4.67717 39.0967 4.44853C39.0967 4.15457 39.1816 3.89871 39.3463 3.69184C39.5109 3.47954 39.7446 3.32167 40.0366 3.20735C40.3287 3.09303 40.6792 3.03859 41.0775 3.03859C41.4333 3.03859 41.7679 3.09847 42.0918 3.21823C42.4105 3.338 42.7132 3.5122 42.9893 3.74628C43.2655 3.98036 43.5151 4.27433 43.7381 4.62273L45.1667 3.17469C44.9118 2.73374 44.5878 2.35267 44.1948 2.04237C43.8019 1.73208 43.3451 1.49255 42.83 1.33468C42.3149 1.17681 41.7307 1.09515 41.0775 1.09515C40.4987 1.09515 39.9623 1.18225 39.4631 1.35101C38.9639 1.51977 38.5284 1.7593 38.1514 2.06415C37.7743 2.369 37.4769 2.73374 37.2592 3.15291C37.0415 3.57208 36.9353 4.03481 36.9353 4.53563C36.9353 5.03646 37.0096 5.48285 37.153 5.8748C37.2964 6.26676 37.5247 6.62061 37.8327 6.9309C38.1408 7.2412 38.5231 7.5025 38.9798 7.71481C39.4365 7.92712 39.9676 8.09043 40.5783 8.21564C40.9023 8.28641 41.1943 8.35718 41.4599 8.43884C41.7254 8.52049 41.9644 8.61304 42.1768 8.72736C42.3892 8.84168 42.5645 8.96144 42.7079 9.09209C42.8513 9.22274 42.9575 9.36973 43.0318 9.53304C43.1062 9.69635 43.138 9.876 43.138 10.072C43.138 10.3442 43.0478 10.5837 42.8725 10.796C42.6973 11.0083 42.453 11.1716 42.1396 11.2914L42.1343 11.2805Z" fill="#FFD329"/>
<path d="M54.6728 7.39347C54.3276 7.10495 53.9133 6.85453 53.4248 6.64223C52.9362 6.42992 52.3892 6.2666 51.7785 6.1414C51.412 6.05974 51.0881 5.97264 50.796 5.86921C50.5092 5.76577 50.2703 5.64601 50.0897 5.50991C49.9091 5.37382 49.7657 5.21595 49.6648 5.04175C49.5639 4.86755 49.5162 4.66613 49.5162 4.43749C49.5162 4.14352 49.6011 3.88767 49.7657 3.6808C49.9304 3.46849 50.164 3.31062 50.4561 3.1963C50.7482 3.08198 51.0987 3.02754 51.497 3.02754C51.8528 3.02754 52.1874 3.08743 52.5113 3.20719C52.83 3.32695 53.1327 3.50115 53.4088 3.73524C53.685 3.96932 53.9346 4.26329 54.1576 4.61169L55.5862 3.16364C55.3313 2.72269 55.0073 2.34162 54.6143 2.03133C54.2213 1.72103 53.7646 1.48151 53.2495 1.32363C52.7344 1.16576 52.1502 1.08411 51.497 1.08411C50.9182 1.08411 50.3818 1.17121 49.8826 1.33997C49.3834 1.50872 48.9479 1.74825 48.5709 2.0531C48.1938 2.35795 47.8964 2.72269 47.6787 3.14186C47.461 3.56103 47.3547 4.02376 47.3547 4.52459C47.3547 5.02542 47.4291 5.47181 47.5725 5.86377C47.7159 6.25572 47.9442 6.60957 48.2522 6.91986C48.5602 7.23016 48.9426 7.49146 49.3993 7.70376C49.856 7.91607 50.3871 8.07939 50.9978 8.20459C51.3218 8.27536 51.6138 8.34613 51.8794 8.42779C52.1449 8.50945 52.3839 8.60199 52.5963 8.71631C52.8087 8.83063 52.984 8.95039 53.1274 9.08105C53.2707 9.2117 53.377 9.35869 53.4513 9.522C53.5257 9.68531 53.5575 9.86495 53.5575 10.0609C53.5575 10.3331 53.4672 10.5726 53.292 10.785C53.1167 10.9973 52.8725 11.1606 52.5591 11.2803C52.2511 11.4001 51.9059 11.46 51.5289 11.46C50.8757 11.46 50.2862 11.313 49.7657 11.019C49.2453 10.7251 48.7143 10.1916 48.1673 9.41857L46.7546 11.0571C47.1104 11.558 47.5141 11.9826 47.9708 12.3364C48.4275 12.6903 48.9373 12.9516 49.5002 13.1312C50.0631 13.3054 50.6845 13.398 51.3642 13.398C52.2405 13.398 53.0052 13.2456 53.6584 12.9461C54.3116 12.6467 54.8214 12.2112 55.1826 11.6505C55.5437 11.0898 55.7242 10.4148 55.7242 9.63087C55.7242 9.17904 55.634 8.76531 55.4587 8.39513C55.2835 8.02495 55.0232 7.69833 54.6781 7.40436L54.6728 7.39347Z" fill="#FFD329"/>
<path d="M66.9403 11.2041C67.1209 10.7632 67.2164 10.2515 67.2164 9.66898C67.2164 9.1246 67.1102 8.64011 66.8925 8.21005C66.6748 7.78543 66.3721 7.42614 65.9844 7.13762C65.7295 6.94709 65.448 6.8001 65.1347 6.68578C65.5171 6.50614 65.8357 6.25572 66.08 5.93454C66.4252 5.4827 66.5951 4.92199 66.5951 4.26329C66.5951 3.60459 66.457 3.08199 66.1862 2.6356C65.9154 2.1892 65.5171 1.84624 64.9913 1.62305C64.4656 1.39441 63.8177 1.28009 63.0529 1.28009H58.0981V13.2129H63.2176C63.8283 13.2129 64.3753 13.1367 64.8639 12.9843C65.3524 12.8318 65.772 12.6086 66.1278 12.3092C66.4836 12.0153 66.7491 11.6451 66.935 11.1987L66.9403 11.2041ZM60.2118 3.27796H62.6918C63.2707 3.27796 63.7061 3.40862 64.0035 3.65903C64.3009 3.90945 64.4549 4.26874 64.4549 4.72602C64.4549 5.00909 64.3859 5.25951 64.2531 5.47726C64.1204 5.69501 63.9345 5.86377 63.6955 5.98898C63.4565 6.11419 63.1751 6.17407 62.8564 6.17407H60.2118V3.27796ZM64.8107 10.4801C64.662 10.7251 64.4443 10.9102 64.1629 11.0354C63.8814 11.1606 63.5309 11.2205 63.122 11.2205H60.2118V8.08484H63.037C63.4459 8.08484 63.8017 8.14472 64.0991 8.26448C64.3965 8.38425 64.6302 8.55845 64.7895 8.78165C64.9488 9.01029 65.0285 9.28248 65.0285 9.59822C65.0285 9.94118 64.9541 10.2297 64.8054 10.4747L64.8107 10.4801Z" fill="#FFD329"/>
<path d="M44.5985 22.7613C44.3436 22.5708 44.0622 22.4238 43.7488 22.3095C44.1312 22.1299 44.4498 21.8794 44.6941 21.5583C45.0393 21.1064 45.2092 20.5457 45.2092 19.887C45.2092 19.2283 45.0712 18.7057 44.8003 18.2593C44.5295 17.8129 44.1312 17.47 43.6055 17.2468C43.0797 17.0181 42.4318 16.9038 41.6671 16.9038H36.7123V28.8366H41.8317C42.4424 28.8366 42.9894 28.7604 43.478 28.608C43.9666 28.4556 44.3861 28.2324 44.7419 27.9329C45.0977 27.639 45.3633 27.2688 45.5491 26.8224C45.7297 26.3815 45.8253 25.8697 45.8253 25.2873C45.8253 24.7429 45.7191 24.2584 45.5013 23.8283C45.2836 23.4037 44.9809 23.0444 44.5932 22.7559L44.5985 22.7613ZM38.8259 18.9017H41.306C41.8848 18.9017 42.3203 19.0323 42.6177 19.2827C42.9151 19.5386 43.0691 19.8925 43.0691 20.3497C43.0691 20.6328 43 20.8832 42.8673 21.101C42.7345 21.3187 42.5486 21.4875 42.3097 21.6127C42.0707 21.7379 41.7892 21.7978 41.4706 21.7978H38.8259V18.9017ZM43.4249 26.1038C43.2762 26.3488 43.0585 26.5339 42.777 26.6591C42.4955 26.7843 42.145 26.8442 41.7361 26.8442H38.8259V23.7086H41.6511C42.0601 23.7086 42.4159 23.7684 42.7133 23.8882C43.0107 24.008 43.2443 24.1822 43.4036 24.4054C43.563 24.634 43.6426 24.9062 43.6426 25.2219C43.6426 25.5649 43.5683 25.8534 43.4196 26.0984L43.4249 26.1038Z" fill="white"/>
<path d="M53.6265 25.2437C53.6265 25.5268 53.5787 25.7935 53.4778 26.0385C53.3769 26.2835 53.2388 26.4903 53.0636 26.67C52.8883 26.8442 52.6759 26.9803 52.4423 27.0783C52.2033 27.1763 51.9431 27.2252 51.651 27.2252C51.2633 27.2252 50.9287 27.1327 50.6526 26.9531C50.3764 26.7734 50.164 26.5121 50.0206 26.18C49.8772 25.8425 49.8029 25.4397 49.8029 24.9606V19.8652H47.7583V25.407C47.7583 26.1583 47.8804 26.8006 48.1247 27.3396C48.369 27.8785 48.7248 28.2922 49.1869 28.5862C49.6542 28.8747 50.2012 29.0217 50.8331 29.0217C51.3217 29.0217 51.7837 28.9237 52.2139 28.7223C52.6441 28.5263 53.0211 28.2541 53.3344 27.9221C53.4566 27.7968 53.5575 27.6553 53.6531 27.5138L53.6743 28.8475H55.6711V19.8652H53.6265V25.2492V25.2437Z" fill="white"/>
<path d="M60.1425 16.2233H58.082V28.8366H60.1425V16.2233Z" fill="white"/>
<path d="M64.6355 16.2233H62.575V28.8366H64.6355V16.2233Z" fill="white"/>
<path d="M72.734 24.6122C72.5216 24.3727 72.2349 24.1658 71.8684 23.9807C71.502 23.8011 71.0506 23.6323 70.5036 23.4854C70.1159 23.3928 69.7973 23.3003 69.553 23.1968C69.3087 23.0934 69.1282 23.0063 69.006 22.9246C68.8945 22.843 68.8095 22.745 68.7511 22.6252C68.6927 22.5055 68.6555 22.3803 68.6449 22.2442C68.6449 22.0863 68.6767 21.9448 68.7352 21.825C68.7936 21.7052 68.8839 21.6072 68.9901 21.5256C69.1016 21.4439 69.2397 21.384 69.4043 21.3459C69.5689 21.3078 69.7601 21.2861 69.9672 21.2861C70.1903 21.2861 70.4292 21.335 70.6842 21.433C70.9391 21.531 71.194 21.6562 71.4436 21.8141C71.6932 21.972 71.9215 22.1571 72.134 22.3585L73.2651 21.0792C73.0102 20.7852 72.7022 20.5294 72.3411 20.3225C71.9799 20.1102 71.5923 19.9523 71.178 19.838C70.7638 19.7237 70.3337 19.6693 69.8876 19.6693C69.4415 19.6693 69.0379 19.7346 68.6396 19.8543C68.2413 19.9741 67.8908 20.1592 67.5934 20.3987C67.296 20.6382 67.057 20.9159 66.8871 21.2425C66.7171 21.5691 66.6269 21.9284 66.6269 22.3258C66.6269 22.6416 66.6746 22.941 66.7702 23.2132C66.8658 23.4854 67.0039 23.7303 67.1951 23.9481C67.4181 24.2094 67.7262 24.4435 68.1244 24.6558C68.5227 24.8681 69.0219 25.0532 69.622 25.211C69.9991 25.3036 70.3071 25.3907 70.5461 25.4832C70.7851 25.5758 70.9603 25.6574 71.0718 25.7391C71.2736 25.897 71.3692 26.1147 71.3692 26.3869C71.3692 26.5339 71.3374 26.67 71.2789 26.7897C71.2205 26.9095 71.1302 27.0129 71.024 27.1055C70.9125 27.198 70.7851 27.2633 70.6311 27.3123C70.4824 27.3559 70.3124 27.3831 70.1212 27.3831C69.6645 27.3831 69.2344 27.296 68.8254 27.1273C68.4165 26.9585 68.0448 26.6809 67.7102 26.2944L66.3826 27.4702C66.7702 27.971 67.2748 28.3521 67.8855 28.6188C68.5015 28.8856 69.1972 29.0217 69.9725 29.0217C70.6045 29.0217 71.1727 28.9019 71.6772 28.6624C72.1817 28.4229 72.58 28.0963 72.8721 27.6716C73.1642 27.2525 73.3129 26.7734 73.3129 26.2399C73.3129 25.9078 73.2704 25.6084 73.1801 25.3362C73.0899 25.064 72.9412 24.8245 72.7287 24.6177L72.734 24.6122Z" fill="white"/>
<path d="M77.6039 23.7249H82.2454V21.7488H77.6039V18.918H83.0951V16.9092H75.4744V28.8366H83.1588V26.8278H77.6039V23.7249Z" fill="white"/>
<path d="M89.5102 25.7173C89.4359 25.9732 89.3509 26.2182 89.2659 26.4523C89.25 26.4033 89.2394 26.3543 89.2235 26.3053C89.1438 26.0603 89.0695 25.8643 88.9898 25.7173L86.5788 19.8544H84.2156L88.2304 29.0381L86.6585 32.7616H88.788L90.2856 28.8421L93.9446 19.8598H91.5654L89.5049 25.7228L89.5102 25.7173Z" fill="white"/>
<path d="M102.999 24.0842C103.01 23.4473 102.919 22.8594 102.723 22.3204C102.526 21.7815 102.25 21.3133 101.884 20.9214C101.517 20.5294 101.087 20.2191 100.588 19.9905C100.089 19.7618 99.5525 19.6475 98.9737 19.6475C98.3205 19.6475 97.7204 19.7618 97.1681 19.9959C96.6211 20.23 96.1484 20.5566 95.7554 20.9867C95.3625 21.4113 95.0544 21.9176 94.8314 22.4946C94.6084 23.0717 94.4968 23.714 94.4968 24.4217C94.4968 25.3091 94.6933 26.093 95.0863 26.7843C95.4793 27.4703 96.0263 28.0146 96.7326 28.412C97.4389 28.8094 98.2461 29.0109 99.1702 29.0109C99.5791 29.0109 99.9933 28.9564 100.418 28.8421C100.843 28.7278 101.241 28.5699 101.624 28.3739C102.006 28.1725 102.346 27.933 102.649 27.6499L101.634 26.2019C101.236 26.5557 100.864 26.8007 100.519 26.9368C100.174 27.0729 99.7968 27.1436 99.3879 27.1436C98.7984 27.1436 98.2886 27.0293 97.8478 26.7952C97.4123 26.5611 97.0725 26.2291 96.8335 25.799C96.6742 25.5105 96.5733 25.1839 96.5202 24.83H102.978L102.994 24.0951L102.999 24.0842ZM97.6035 21.8359C97.9753 21.6182 98.432 21.5093 98.9737 21.5093C99.3295 21.5093 99.6534 21.5855 99.9455 21.7379C100.238 21.8904 100.482 22.1027 100.668 22.3694C100.854 22.6362 100.965 22.9465 101.002 23.3003V23.3874H96.5627C96.6105 23.1588 96.6742 22.9519 96.7591 22.7668C96.945 22.364 97.2265 22.0537 97.5982 21.8359H97.6035Z" fill="white"/>
<path d="M25.6608 16.2124H27.2646V14.1057H25.6608C25.1669 8.46045 20.7697 3.94754 15.2573 3.44127V1.79724H13.2021V3.44127C7.69501 3.94754 3.29251 8.45501 2.79863 14.1057H1.19482V16.2124H2.79863C3.29251 21.8576 7.6897 26.3706 13.2021 26.8768V28.5209H15.2573V26.8768C20.7644 26.3706 25.1669 21.8631 25.6608 16.2124ZM4.86976 16.2124H6.17617V14.1057H4.86976C5.34772 9.61998 8.83147 6.04885 13.2074 5.55891V6.89808H15.2626V5.55891C19.6385 6.04885 23.1223 9.61998 23.6003 14.1057H22.2939V16.2124H23.6003C23.1223 20.6981 19.6385 24.2692 15.2626 24.7592V23.42H13.2074V24.7592C8.83147 24.2692 5.34772 20.6981 4.86976 16.2124Z" fill="#FFD329"/>
<path d="M2.0552 20.5185H0V29.7512H9.00148V27.6444H2.0552V20.5185Z" fill="white"/>
<path d="M26.4097 27.6445H19.4263V29.7512H28.4649V20.475H26.4097V27.6445Z" fill="white"/>
<path d="M19.458 0.566956V2.6737H26.4096V9.79964H28.4648V0.566956H19.458Z" fill="white"/>
<path d="M2.0552 2.6737H9.00148V0.566956H0V9.82141H2.0552V2.6737Z" fill="white"/>
<path d="M14.2325 21.5855C11.1417 21.5855 8.48637 19.2229 8.06152 16.0872L9.11834 15.9348C9.47415 18.5315 11.6727 20.4913 14.2325 20.4913C16.7922 20.4913 18.9961 18.5315 19.3466 15.9348L20.4034 16.0872C19.9785 19.2229 17.3232 21.5855 14.2325 21.5855Z" fill="#FFD329"/>
<path d="M14.2323 8.33527C10.5415 8.33527 7.53564 11.4165 7.53564 15.1999C7.53564 15.5211 7.55689 15.8423 7.59937 16.158L7.72151 17.0399H20.7484L20.8706 16.158C20.9131 15.8423 20.9343 15.5211 20.9343 15.2053C20.9343 11.4219 17.9285 8.34071 14.2376 8.34071L14.2323 8.33527ZM14.2323 10.3821C15.7193 10.3821 17.0469 11.0953 17.9073 12.2058H10.5574C11.4177 11.0953 12.7454 10.3821 14.2323 10.3821ZM9.53774 14.9876C9.54836 14.7372 9.58022 14.4922 9.62802 14.2527H18.8366C18.8844 14.4922 18.9163 14.7372 18.9269 14.9876H9.53774Z" fill="white"/>
</svg>
